<mxfile host="65bd71144e">
    <diagram id="zwX1L1p9gdYUaSxFlsjB" name="第 1 页">
        <mxGraphModel dx="729" dy="749" grid="1" gridSize="10" guides="1" tooltips="1" connect="1" arrows="1" fold="1" page="1" pageScale="1" pageWidth="827" pageHeight="1169" math="0" shadow="0">
            <root>
                <mxCell id="0"/>
                <mxCell id="1" parent="0"/>
                <mxCell id="2" value="Controller" style="rounded=0;whiteSpace=wrap;html=1;" vertex="1" parent="1">
                    <mxGeometry x="80" y="90" width="530" height="60" as="geometry"/>
                </mxCell>
                <mxCell id="3" value="DTO" style="rounded=0;whiteSpace=wrap;html=1;" vertex="1" parent="1">
                    <mxGeometry x="80" y="170" width="60" height="210" as="geometry"/>
                </mxCell>
                <mxCell id="4" value="Model" style="rounded=0;whiteSpace=wrap;html=1;" vertex="1" parent="1">
                    <mxGeometry x="540" y="170" width="70" height="220" as="geometry"/>
                </mxCell>
                <mxCell id="5" value="Service Interface" style="rounded=0;whiteSpace=wrap;html=1;" vertex="1" parent="1">
                    <mxGeometry x="170" y="180" width="350" height="60" as="geometry"/>
                </mxCell>
                <mxCell id="6" value="Repository" style="rounded=0;whiteSpace=wrap;html=1;" vertex="1" parent="1">
                    <mxGeometry x="350" y="410" width="260" height="60" as="geometry"/>
                </mxCell>
                <mxCell id="7" value="Util" style="rounded=0;whiteSpace=wrap;html=1;" vertex="1" parent="1">
                    <mxGeometry x="80" y="410" width="260" height="60" as="geometry"/>
                </mxCell>
                <mxCell id="9" value="Service Implementation" style="rounded=0;whiteSpace=wrap;html=1;" vertex="1" parent="1">
                    <mxGeometry x="170" y="300" width="350" height="60" as="geometry"/>
                </mxCell>
            </root>
        </mxGraphModel>
    </diagram>
</mxfile>